<svg width="545" height="629" viewBox="0 0 545 629" fill="none" xmlns="http://www.w3.org/2000/svg">
<mask id="path-1-outside-1_2008_77" maskUnits="userSpaceOnUse" x="-0.00976562" y="-0.999878" width="545" height="630" fill="black">
<rect fill="white" x="-0.00976562" y="-0.999878" width="545" height="630"/>
<path fill-rule="evenodd" clip-rule="evenodd" d="M165.936 72.1086C225.929 15.9973 320.05 19.144 376.162 79.1369C395.151 99.4398 407.351 123.652 412.861 148.976C416.292 160.47 419.653 183.444 419.188 219.124C426.983 219.736 441.797 217.517 459.271 205.057C485.265 186.522 502.458 198.395 509.714 214.206C518.062 232.397 503.19 257.04 469.328 283.756C448.299 300.346 419.358 322.163 408.191 333.599C408.092 334.209 407.996 334.822 407.896 335.436C384.449 478.691 237.361 551.346 196.179 573.897C154.99 596.452 101.296 600.933 96.015 591.431C89.6753 580.02 110.773 563.311 126.606 549.237C136.213 540.696 150.857 526.038 156.997 518.106C177.591 491.5 187.247 457 187.247 439.261C187.247 413.509 167.379 402.975 152.46 408.245C135.09 414.382 100.099 434.108 88.2982 407.593C76.6443 381.407 102.291 349.916 117.172 331.643L117.728 330.96C132.515 312.797 114.939 300.228 98.8705 292.267C82.719 284.264 58.5418 270.769 42.6898 253.821C37.6457 248.427 22.685 229.331 40.433 209.712C54.8755 193.748 70.5013 203.255 91.8959 210.687C108.451 216.438 120.02 208.424 120.287 201.799C113.688 155.373 129.089 106.572 165.936 72.1086Z"/>
</mask>
<path fill-rule="evenodd" clip-rule="evenodd" d="M165.936 72.1086C225.929 15.9973 320.05 19.144 376.162 79.1369C395.151 99.4398 407.351 123.652 412.861 148.976C416.292 160.47 419.653 183.444 419.188 219.124C426.983 219.736 441.797 217.517 459.271 205.057C485.265 186.522 502.458 198.395 509.714 214.206C518.062 232.397 503.19 257.04 469.328 283.756C448.299 300.346 419.358 322.163 408.191 333.599C408.092 334.209 407.996 334.822 407.896 335.436C384.449 478.691 237.361 551.346 196.179 573.897C154.99 596.452 101.296 600.933 96.015 591.431C89.6753 580.02 110.773 563.311 126.606 549.237C136.213 540.696 150.857 526.038 156.997 518.106C177.591 491.5 187.247 457 187.247 439.261C187.247 413.509 167.379 402.975 152.46 408.245C135.09 414.382 100.099 434.108 88.2982 407.593C76.6443 381.407 102.291 349.916 117.172 331.643L117.728 330.96C132.515 312.797 114.939 300.228 98.8705 292.267C82.719 284.264 58.5418 270.769 42.6898 253.821C37.6457 248.427 22.685 229.331 40.433 209.712C54.8755 193.748 70.5013 203.255 91.8959 210.687C108.451 216.438 120.02 208.424 120.287 201.799C113.688 155.373 129.089 106.572 165.936 72.1086Z" fill="white"/>
<path d="M165.936 72.1086L144.077 48.7377L144.077 48.7378L165.936 72.1086ZM376.162 79.1369L399.532 57.2782V57.2782L376.162 79.1369ZM412.861 148.976L381.592 155.778L381.85 156.965L382.198 158.128L412.861 148.976ZM419.188 219.124L387.191 218.707L386.8 248.682L416.685 251.026L419.188 219.124ZM459.271 205.057L440.693 179.002L440.693 179.002L459.271 205.057ZM509.714 214.206L538.798 200.86L538.798 200.86L509.714 214.206ZM469.328 283.756L489.148 308.879L489.148 308.879L469.328 283.756ZM408.191 333.599L385.296 311.242L378.221 318.487L376.602 328.484L408.191 333.599ZM407.896 335.436L439.476 340.604V340.604L407.896 335.436ZM196.179 573.897L211.549 601.964H211.549L196.179 573.897ZM96.015 591.431L68.0422 606.972L68.0443 606.976L96.015 591.431ZM126.606 549.237L147.866 573.153V573.153L126.606 549.237ZM156.997 518.106L131.693 498.518V498.518L156.997 518.106ZM187.247 439.261L219.247 439.261V439.261L187.247 439.261ZM152.46 408.245L141.802 378.073L141.801 378.073L152.46 408.245ZM88.2982 407.593L59.0627 420.604L59.0629 420.604L88.2982 407.593ZM117.172 331.643L141.985 351.85L141.989 351.844L117.172 331.643ZM117.728 330.96L92.9118 310.757L92.9107 310.758L117.728 330.96ZM98.8705 292.267L84.6632 320.94L84.6633 320.94L98.8705 292.267ZM42.6898 253.821L19.3189 275.679L19.3191 275.679L42.6898 253.821ZM40.433 209.712L16.7028 188.244L16.7027 188.244L40.433 209.712ZM91.8959 210.687L81.3953 240.915L81.3953 240.915L91.8959 210.687ZM120.287 201.799L152.261 203.092L152.379 200.18L151.969 197.295L120.287 201.799ZM165.936 72.1086L187.795 95.4795C234.88 51.4404 308.751 53.9101 352.791 100.996L376.162 79.1369L399.532 57.2782C331.349 -15.622 216.978 -19.4458 144.077 48.7377L165.936 72.1086ZM376.162 79.1369L352.791 100.996C367.729 116.967 377.275 135.935 381.592 155.778L412.861 148.976L444.129 142.173C437.428 111.368 422.573 81.9124 399.532 57.2782L376.162 79.1369ZM412.861 148.976L382.198 158.128C384.321 165.242 387.635 184.59 387.191 218.707L419.188 219.124L451.185 219.541C451.671 182.297 448.262 155.698 443.524 139.823L412.861 148.976ZM419.188 219.124L416.685 251.026C432.763 252.287 454.928 247.455 477.849 231.112L459.271 205.057L440.693 179.002C428.665 187.578 421.202 187.184 421.69 187.222L419.188 219.124ZM459.271 205.057L477.849 231.112C481.746 228.333 483.894 227.717 484.32 227.618C484.508 227.574 484.322 227.639 483.829 227.624C483.327 227.61 482.698 227.52 482.022 227.31C480.606 226.87 479.871 226.199 479.768 226.095C479.732 226.06 480.138 226.479 480.63 227.553L509.714 214.206L538.798 200.86C532.758 187.697 520.867 172.363 501.017 166.194C480.113 159.697 458.99 165.955 440.693 179.002L459.271 205.057ZM509.714 214.206L480.63 227.553C478.787 223.535 481.765 222.746 477.749 229.592C473.683 236.523 464.919 246.474 449.507 258.633L469.328 283.756L489.148 308.879C507.598 294.322 523.202 278.594 532.95 261.976C542.749 245.274 548.989 223.068 538.798 200.86L509.714 214.206ZM469.328 283.756L449.507 258.633C439.719 266.355 426.194 276.774 415.139 285.568C404.133 294.324 392.512 303.852 385.296 311.242L408.191 333.599L431.085 355.956C435.036 351.91 443.47 344.812 454.983 335.653C466.448 326.532 477.908 317.747 489.148 308.879L469.328 283.756ZM408.191 333.599L376.602 328.484C376.44 329.484 376.435 329.54 376.316 330.267L407.896 335.436L439.476 340.604C439.558 340.104 439.744 338.934 439.779 338.714L408.191 333.599ZM407.896 335.436L376.316 330.267C366.243 391.811 329.411 439.608 287.725 475.753C245.965 511.963 202.174 534.13 180.81 545.829L196.179 573.897L211.549 601.964C231.366 591.112 281.71 565.677 329.652 524.107C377.667 482.474 426.102 422.316 439.476 340.604L407.896 335.436ZM196.179 573.897L180.81 545.829C164.156 554.949 144.239 560.698 128.099 563.008C119.989 564.168 114.097 564.275 110.9 563.994C109.204 563.845 109.516 563.691 111.028 564.238C111.594 564.442 119.04 566.986 123.986 575.886L96.015 591.431L68.0443 606.976C74.3106 618.251 84.5899 622.733 89.2633 624.423C94.8837 626.456 100.579 627.334 105.302 627.749C114.945 628.596 126.041 627.954 137.164 626.363C159.488 623.168 187.013 615.4 211.549 601.964L196.179 573.897ZM96.015 591.431L123.988 575.89C125.969 579.457 126.862 583.344 126.86 586.941C126.858 590.286 126.091 592.652 125.673 593.716C125.014 595.391 124.745 595.064 127.048 592.439C129.081 590.123 131.952 587.313 135.755 583.864C139.818 580.178 143.239 577.266 147.866 573.153L126.606 549.237L105.346 525.32C98.7911 531.146 87.1265 540.9 78.9431 550.226C74.7856 554.964 69.4408 561.833 66.1143 570.291C62.5165 579.438 60.391 593.2 68.0422 606.972L96.015 591.431ZM126.606 549.237L147.866 573.153C158.017 564.13 174.37 547.94 182.302 537.693L156.997 518.106L131.693 498.518C127.344 504.136 114.41 517.263 105.346 525.32L126.606 549.237ZM156.997 518.106L182.302 537.693C206.98 505.812 219.247 464.498 219.247 439.261L187.247 439.261H155.247C155.247 449.502 148.203 477.189 131.693 498.518L156.997 518.106ZM187.247 439.261L219.247 439.261C219.247 417.696 210.595 398.641 194.815 386.645C179.682 375.141 159.747 371.733 141.802 378.073L152.46 408.245L163.119 438.418C160.093 439.487 157.552 438.711 156.082 437.594C155.265 436.973 154.929 436.379 154.871 436.254C154.819 436.141 155.247 436.973 155.247 439.261L187.247 439.261ZM152.46 408.245L141.801 378.073C138.838 379.12 135.753 380.363 133.142 381.426C130.314 382.576 127.82 383.605 125.165 384.638C119.774 386.735 115.554 388.103 112.246 388.74C108.669 389.428 108.958 388.694 111.221 389.468C112.606 389.942 114.204 390.816 115.609 392.133C116.979 393.416 117.491 394.487 117.534 394.582L88.2982 407.593L59.0629 420.604C65.4023 434.848 76.3514 445.179 90.4978 450.02C103.183 454.362 115.518 453.284 124.336 451.587C133.422 449.84 141.944 446.783 148.367 444.284C156.421 441.151 159.106 439.836 163.119 438.418L152.46 408.245ZM88.2982 407.593L117.534 394.582C117.507 394.522 117.17 393.914 117.473 391.816C117.817 389.429 118.908 385.886 121.321 381.131C126.333 371.253 134.219 361.386 141.985 351.85L117.172 331.643L92.3597 311.435C85.244 320.173 72.8656 335.188 64.2482 352.17C55.8979 368.626 47.3404 394.264 59.0627 420.604L88.2982 407.593ZM117.172 331.643L141.989 351.844L142.545 351.162L117.728 330.96L92.9107 310.758L92.3551 311.441L117.172 331.643ZM117.728 330.96L142.544 351.163C149.311 342.851 154.662 332.311 155.244 319.868C155.834 307.265 151.343 296.832 145.953 289.25C136.389 275.793 121.442 267.738 113.078 263.594L98.8705 292.267L84.6633 320.94C87.8742 322.531 90.4222 323.997 92.2849 325.305C94.2973 326.718 94.3852 327.168 93.7867 326.326C92.9514 325.151 91.0854 321.764 91.3143 316.875C91.5358 312.145 93.5385 309.987 92.9118 310.757L117.728 330.96ZM98.8705 292.267L113.078 263.594C97.3567 255.804 77.701 244.407 66.0605 231.962L42.6898 253.821L19.3191 275.679C39.3827 297.131 68.0813 312.724 84.6632 320.94L98.8705 292.267ZM42.6898 253.821L66.0608 231.962C65.9452 231.838 65.7237 231.592 65.4515 231.25C65.178 230.907 64.8956 230.52 64.6351 230.114C64.3729 229.706 64.1786 229.35 64.0456 229.067C63.9123 228.783 63.88 228.656 63.8893 228.69C63.901 228.733 63.9651 228.985 63.9847 229.415C64.0051 229.865 63.9712 230.405 63.8484 230.966C63.7238 231.535 63.5567 231.901 63.4912 232.024C63.4336 232.133 63.5701 231.836 64.1633 231.18L40.433 209.712L16.7027 188.244C-0.105183 206.823 -2.63079 228 2.13939 245.511C6.28842 260.742 15.3365 271.421 19.3189 275.679L42.6898 253.821ZM40.433 209.712L64.1632 231.18C64.6631 230.628 63.7597 231.771 61.3972 232.534C59.1853 233.249 57.8543 232.923 58.6179 233.042C59.7038 233.212 61.7854 233.742 66.0479 235.272C68.1139 236.014 70.229 236.816 72.8836 237.813C75.4226 238.767 78.3208 239.847 81.3953 240.915L91.8959 210.687L102.397 180.459C96.4227 178.383 94.5817 177.516 87.672 175.036C82.5362 173.192 75.7971 170.95 68.497 169.809C60.8744 168.618 51.5918 168.445 41.7196 171.634C31.6967 174.873 23.4241 180.814 16.7028 188.244L40.433 209.712ZM91.8959 210.687L81.3953 240.915C96.2981 246.092 111.575 245.893 124.665 240.356C135.592 235.735 151.425 223.785 152.261 203.092L120.287 201.799L88.3136 200.506C88.6103 193.169 91.8003 188.238 93.8859 185.832C96.1118 183.264 98.3315 182.005 99.7341 181.412C102.834 180.101 104.049 181.033 102.396 180.459L91.8959 210.687ZM120.287 201.799L151.969 197.295C146.776 160.763 158.896 122.509 187.795 95.4794L165.936 72.1086L144.077 48.7378C99.2825 90.6344 80.5999 149.983 88.606 206.303L120.287 201.799Z" fill="black" mask="url(#path-1-outside-1_2008_77)"/>
<path d="M272.078 82.0002C311.005 82.0002 342.561 113.556 342.562 152.483C342.562 172.016 334.614 189.692 321.778 202.457L347.703 313.282L347.847 313.897H196.99L197.117 313.294L220.793 200.83C208.891 188.21 201.596 171.199 201.596 152.483C201.596 113.556 233.152 82.0004 272.078 82.0002ZM271.645 113C249.744 113 231.99 130.753 231.99 152.654C231.99 169.673 242.713 184.185 257.771 189.81L243.962 282.838H301.572L287.636 188.948C301.571 182.799 311.298 168.863 311.298 152.654C311.298 130.754 293.545 113 271.645 113Z" fill="black"/>
</svg>
